<?xml version="1.0" standalone="no"?>
<!DOCTYPE svg PUBLIC "-//W3C//DTD SVG 20010904//EN"
 "http://www.w3.org/TR/2001/REC-SVG-20010904/DTD/svg10.dtd">
<svg version="1.0" xmlns="http://www.w3.org/2000/svg"
 width="700.000000pt" height="700.000000pt" viewBox="0 0 700.000000 700.000000"
 preserveAspectRatio="xMidYMid meet">
<metadata>
Created by potrace 1.11, written by Peter Selinger 2001-2013
</metadata>
<g transform="translate(0.000000,700.000000) scale(0.100000,-0.100000)"
fill="#000000" stroke="none">
<path d="M1918 5506 c-68 -101 -125 -183 -129 -181 -3 2 -6 -1 -6 -8 0 -11
-121 -198 -275 -426 -48 -71 -50 -76 -39 -108 7 -18 9 -38 5 -44 -4 -7 -3 -9
4 -5 6 4 22 -24 41 -71 30 -79 57 -143 92 -220 10 -24 19 -45 19 -48 0 -5 68
-171 90 -220 27 -60 39 -98 33 -108 -3 -6 -1 -7 5 -3 7 4 12 3 12 -3 0 -6 11
-34 24 -63 48 -109 77 -189 70 -200 -4 -6 -3 -8 3 -5 9 6 91 -180 85 -195 -1
-5 2 -8 8 -8 5 0 10 -7 10 -15 0 -8 13 -42 29 -77 15 -35 37 -83 46 -108 10
-25 26 -63 36 -85 9 -22 38 -92 63 -155 26 -63 51 -124 56 -135 5 -11 32 -76
60 -145 28 -69 55 -134 60 -145 25 -56 38 -95 32 -95 -4 0 -2 -4 3 -8 6 -4 34
-63 63 -131 38 -93 49 -127 39 -133 -8 -5 -7 -8 6 -8 10 0 20 -8 23 -17 3 -10
21 -55 40 -101 19 -45 32 -88 28 -95 -4 -6 -4 -9 1 -5 8 8 67 -123 68 -149 0
-7 5 -13 10 -13 5 0 7 -9 4 -20 -3 -11 -1 -18 3 -15 8 5 43 -73 42 -92 0 -4 3
-12 8 -18 5 -5 23 -46 40 -90 44 -110 47 -119 50 -130 1 -5 6 -15 12 -22 5 -7
6 -18 2 -24 -4 -8 -3 -9 4 -5 7 4 12 1 12 -6 0 -7 6 -24 13 -38 18 -35 49
-118 47 -126 -1 -4 2 -10 7 -13 16 -11 55 -120 47 -132 -4 -7 -3 -9 3 -6 6 4
29 -40 54 -103 l44 -110 53 -1 c210 -3 237 -5 235 -16 -3 -13 22 -12 34 2 4 4
3 5 -4 1 -6 -3 -14 -2 -18 4 -4 6 42 9 132 7 97 -1 138 -5 138 -14 0 -6 3 -15
7 -19 4 -3 6 3 3 15 -4 24 13 28 34 9 11 -11 13 -10 7 0 -6 10 20 12 126 11
73 -1 149 -1 168 0 l36 1 53 133 c30 72 63 152 74 177 11 25 21 50 23 55 1 6
23 60 49 120 25 61 51 121 57 135 5 14 16 39 23 55 7 17 25 62 40 100 43 109
62 145 70 137 5 -4 5 -2 1 5 -9 16 64 194 77 186 6 -3 7 -1 3 6 -12 18 13 81
32 82 9 0 12 3 5 5 -10 5 35 131 83 228 8 16 14 35 14 43 0 7 4 13 10 13 5 0
9 3 9 8 -1 4 0 10 1 15 1 4 3 10 5 15 1 4 7 21 14 37 6 17 14 36 16 43 8 21
24 13 31 -15 4 -16 10 -32 14 -38 4 -5 19 -41 34 -80 15 -38 34 -83 41 -100 7
-16 32 -76 56 -133 l42 -102 51 0 c215 -2 890 1 893 4 2 2 -3 19 -11 37 -8 19
-21 50 -29 69 -15 33 -53 126 -112 270 -14 36 -33 80 -42 99 -8 18 -16 39 -17
45 -1 6 -7 20 -13 31 -13 23 -84 195 -87 210 -1 6 -5 15 -8 21 -7 11 -64 147
-100 239 -11 28 -26 66 -35 85 -45 104 -163 389 -163 395 0 2 -11 28 -24 57
-13 29 -26 60 -29 68 -4 12 -28 15 -140 14 -88 0 -134 3 -130 9 4 6 1 7 -8 1
-21 -13 -332 -13 -341 0 -6 8 -8 8 -8 0 0 -8 -47 -11 -158 -11 -87 0 -163 -2
-169 -6 -6 -4 -14 -19 -17 -33 -4 -14 -18 -49 -31 -77 -14 -28 -25 -54 -25
-59 0 -5 -9 -27 -19 -51 -11 -23 -47 -109 -81 -192 -34 -82 -68 -163 -75 -180
-8 -16 -46 -109 -86 -205 -79 -193 -145 -354 -181 -443 -14 -31 -27 -55 -30
-52 -3 4 -5 0 -4 -7 1 -15 -115 -308 -123 -308 -4 0 -14 21 -24 48 -10 26 -22
54 -27 63 -4 9 -27 63 -50 120 -24 57 -53 128 -66 157 -13 29 -24 55 -24 57 0
3 -23 59 -50 126 -28 66 -47 125 -44 131 4 6 3 8 -3 5 -6 -4 -18 14 -28 41
-10 26 -23 61 -31 77 -7 17 -25 59 -39 95 -14 36 -32 79 -40 95 -8 17 -19 44
-25 60 -13 34 -315 764 -335 810 -54 122 -85 207 -79 217 4 6 3 8 -3 5 -5 -3
-29 42 -52 101 -24 59 -49 121 -56 137 -12 28 -26 63 -30 75 -1 3 -11 27 -23
53 -12 27 -20 52 -17 57 3 4 -1 10 -9 13 -7 3 -16 16 -18 29 -3 13 -9 31 -13
40 -6 16 15 17 328 17 185 -1 341 2 346 6 6 3 11 3 11 -2 0 -4 123 -7 272 -5
245 2 274 4 286 20 7 9 19 25 27 35 8 9 12 17 9 17 -3 0 8 18 25 39 17 21 31
41 31 44 0 5 162 250 183 277 7 8 28 41 47 73 19 31 38 57 42 57 4 0 8 4 8 9
0 12 61 105 72 109 4 2 8 8 8 14 0 5 24 44 53 86 29 42 56 83 61 90 6 9 -215
12 -1088 12 l-1096 0 -122 -184z"/>
<path d="M4535 5235 c-216 -49 -394 -231 -439 -447 -16 -77 -13 -194 7 -268 8
-30 16 -62 18 -70 2 -8 10 -21 17 -28 7 -8 10 -18 7 -23 -4 -5 -2 -9 4 -9 5 0
13 -10 17 -22 3 -12 19 -36 35 -52 16 -17 27 -36 25 -43 -3 -7 1 -10 8 -7 7 3
18 -7 26 -20 7 -14 17 -23 22 -20 4 3 8 2 8 -3 0 -4 27 -25 60 -46 64 -42 184
-87 230 -87 16 0 32 -5 35 -10 4 -6 11 -8 16 -4 17 10 59 12 65 2 3 -4 10 -6
15 -3 5 4 17 8 26 10 10 2 27 7 37 11 15 6 17 4 11 -7 -7 -12 -6 -12 7 -1 9 7
26 15 39 17 31 6 166 72 174 85 4 6 11 7 17 4 7 -4 8 -2 4 4 -4 7 -3 12 2 12
16 0 81 70 123 131 21 32 39 60 39 62 0 3 7 21 15 41 8 20 16 38 16 41 0 2 7
25 14 50 14 45 15 212 2 264 -48 188 -173 333 -352 408 -103 43 -237 54 -350
28z"/>
<path d="M3549 4763 c-13 -16 -12 -17 4 -4 9 7 17 15 17 17 0 8 -8 3 -21 -13z"/>
<path d="M4876 4073 c-6 -14 -5 -15 5 -6 7 7 10 15 7 18 -3 3 -9 -2 -12 -12z"/>
<path d="M3438 998 c-9 -5 -6 -7 9 -5 12 2 25 6 28 8 8 9 -23 6 -37 -3z"/>
<path d="M3556 998 c3 -5 10 -6 15 -3 13 9 11 12 -6 12 -8 0 -12 -4 -9 -9z"/>
<path d="M3695 999 c-3 -4 2 -6 10 -5 21 3 28 13 10 13 -9 0 -18 -4 -20 -8z"/>
<path d="M3516 978 c3 -5 10 -6 15 -3 13 9 11 12 -6 12 -8 0 -12 -4 -9 -9z"/>
<path d="M3460 966 c0 -2 8 -10 18 -17 15 -13 16 -12 3 4 -13 16 -21 21 -21
13z"/>
<path d="M3570 959 c0 -5 5 -7 10 -4 6 3 10 8 10 11 0 2 -4 4 -10 4 -5 0 -10
-5 -10 -11z"/>
<path d="M3510 957 c0 -2 6 -10 14 -16 11 -9 16 -9 22 1 4 7 4 10 -1 6 -4 -4
-14 -3 -22 3 -7 6 -13 9 -13 6z"/>
<path d="M3415 941 c-3 -5 -2 -12 3 -15 5 -3 9 1 9 9 0 17 -3 19 -12 6z"/>
<path d="M3636 942 c-3 -5 1 -9 9 -9 8 0 12 4 9 9 -3 4 -7 8 -9 8 -2 0 -6 -4
-9 -8z"/>
<path d="M3796 927 c3 -10 9 -15 12 -12 3 3 0 11 -7 18 -10 9 -11 8 -5 -6z"/>
<path d="M3267 919 c7 -7 15 -10 18 -7 3 3 -2 9 -12 12 -14 6 -15 5 -6 -5z"/>
<path d="M3730 926 c0 -2 7 -7 16 -10 8 -3 12 -2 9 4 -6 10 -25 14 -25 6z"/>
</g>
</svg>
