<svg version="1" xmlns="http://www.w3.org/2000/svg" width="682.667" height="682.667" viewBox="0 0 512.000000 512.000000"><path d="M128.1 128.4c-18.2 27.2-21.2 32.2-20.6 34.5.6 2.2 4.1 11 7.5 18.6.5 1.1 2.1 4.9 3.5 8.5 1.4 3.6 3 7.4 3.5 8.5 1.2 2.7 6.4 15.3 20.9 50.5 6.7 16.2 12.6 30.4 13 31.5.5 1.1 1.6 3.6 2.4 5.5.8 1.9 4.7 11.1 8.5 20.5 10.4 25.2 43.5 105.1 49.4 119.3l5.1 12.2h69.4l10.3-24.7c5.7-13.7 12.5-30.2 15.2-36.8 2.7-6.6 5.3-12.9 5.9-14 .5-1.1 4.7-11.2 9.3-22.5l8.5-20.5 2.1 5c1.2 2.8 4.4 10.6 7.2 17.5s5.3 12.7 5.5 13c.7.7 68.4.6 68.9-.1.4-.7-9-24.3-14.2-35.7-1.3-2.9-2.4-5.6-2.4-6.1 0-.4-.6-2.1-1.4-3.7-.8-1.6-5.8-13.5-11.1-26.4-5.3-12.9-10.4-25.3-11.4-27.5-1-2.2-3.3-7.7-5.1-12.2l-3.3-8.2h-34.8l-34.7.1-15.4 37.2c-8.5 20.4-19.5 46.9-24.4 58.8-4.9 12-9.1 21.8-9.4 21.8-.3-.1-5-11-10.4-24.3-5.5-13.3-10.6-25.8-11.5-27.7-.8-1.9-1.5-3.7-1.6-4-.1-.3-.6-1.6-1.2-3s-12-28.8-25.3-61-24.8-59.9-25.5-61.5c-.8-1.7-2.1-4.7-2.9-6.8l-1.5-3.7 4.7-.1h45.3l40.6.1 20.6-31c11.4-17 20.8-31.5 20.9-32.2.2-.9-16.8-1.2-79.3-1.3h-79.6l-21.2 31.9z"/><path d="M334.3 129.2c-20.1 3-35.4 21.2-35.5 42.1-.2 18.7 10.8 34 29.2 40.7 3.8 1.4 7.4 1.8 14.8 1.6 8.8-.1 10.3-.5 16.6-3.6 16.6-8.2 25-22.4 24.2-40.8-.5-11.6-4.2-20-12.3-28-10.4-10.2-22.7-14.2-37-12z"/></svg>